<svg xmlns="http://www.w3.org/2000/svg" viewBox="183 275 244 241" xmlns:v="https://vecta.io/nano"><path d="M414.6 509c0-2.8 2.3-5.1 5.3-5.1s5.3 2.3 5.3 5.1-2.3 5.3-5.3 5.3c-3-.2-5.3-2.5-5.3-5.3m.9 0c0 2.3 1.9 4.2 4.4 4.2 2.3 0 4.2-1.8 4.2-4.2 0-2.3-1.9-4.1-4.2-4.1-2.4 0-4.4 1.8-4.4 4.1"/><path fill="#243b7a" d="M422.6 512h-1.1l-1.8-2.7h-.9v2.7h-.8v-5.8h2.7c.5 0 1.1 0 1.4.4.5.2.7.7.7 1.2 0 1.1-.9 1.6-1.9 1.6l1.7 2.6zm-2.8-3.6c.9 0 1.9.2 1.9-.9 0-.7-.7-.9-1.4-.9h-1.4v1.8h.9zM254.3 366.6c-5.1-.8-10.2-.9-15.8 0l-1.5-3.1c4.9-3.9 14.6-3.7 19 0l-1.7 3.1zM422.7 456c-14.9 43.3-12.9 52-12.6 58.5h-42.5c1.7-3.9 9.4-17.8 11.2-31-1.9 1.7-10.8 8.5-23.2 3.6-4.7 11.8-12.6 24.9-14 27.3H304c4.2-7.1 14.3-19.6 19.2-38.3l-10.9.9-.7-8.4-6.6.5-1.8 24.1c-6.8.9-15.8 2-23.6 2-3.2 0-13.8.5-24.4-8.9-6.4-5.3-14-12-21.6-18.8-.6 16.1-4.2 42.9-4.7 46.9h-34.5c3.4-19.3 7.8-23.5-.9-62.1-1.4-6.2-1.1-14.2 2.4-20.4-10.2-13.1-13.3-28.3-9.1-44.6 3.9-14.6 10.9-36.8 16.3-52.5l-10.4-1.2c-.2-3.8 2.6-9.3 6.3-12.4-5.2-6.4-7.3-13-7.3-19.1.7-27.3 28.5-27 38-26.7-6.5 10.2-9.3 19.6-6.2 21.6s10.2-3.1 21.9-3.1 18.9 5.1 21.9 3.1c3.1-2 .3-11.4-6.2-21.6 9.5-.3 37.3-.7 38 26.7 0 6.1-2 12.9-6.7 18.6 3 3.6 5.7 8.7 6.3 12.8l-12.2.2c2.4 4.6 4.4 8.1 4.8 8.7 9 15.9 17.4 28.3 24.8 36.4 16.1 17.4 39 24.8 55.1 25.9 18.1 1.2 28.8-2.3 32.7-10.9 2.5-5.4 2.4-10.6-.1-15.6-5.4-10.5-21.8-18.8-45.9-23.4-21.9-4.1-37.7-10.5-43.2-28.3v-.1c-.1-.5-3.1-11.1 3.6-20.2 5.6-7.5 15.9-11.3 30.5-11.3H427c-.4.7-6.2 12.5-13.6 20.3-9 9.3-17.7 12.2-25 12.2-12 0-19-7-24.6-12.6-4.9-4.9-8.2-8-13.1-8.2-1.2 0-17.3-.8-22.9 6.6-3.2 4.2-2 9.5-1.8 10 3.4 10.8 12.3 16.1 34.1 20.2 19.7 3.7 45 11.8 54.2 29.5 4.2 8.1 4.3 17.2.4 25.8-4.3 9.3-13 15-25.8 17 9 9.7 11.2 18.4 17.5 27.4 2.3 3.7 7.9 9.1 16.3 12.9zM372 306.9c5.1 5.1 9.1 9.2 16.3 9.2 7 0 13-4.6 17.2-9.2H372zM222.1 457.1l-17.3-15.8c-2.9 7.5 9.9 34.2 3.9 61.5h10c1.9-15.5 4-37.2 3.4-45.7zm123.7 23.1c-1.5-1.7-2.9-3.6-4-5.7l-6.5.6c-2.6 11.6-6.9 21-10.5 27.7h10c3.2-5.5 7.7-14.3 11-22.6zm27.3-7.6c-4.1-1.9-18.6-4.5-21.9-5.5 1.3 3.8 5.1 8.7 10.8 9.9 5.8 1.1 9.6-2.3 11.1-4.4zm35.5-11.2c-9.3-6.9-12.3-10.9-18.5-22.6-4.2-7.9-9.9-20.4-25.6-22.9-17.7-2.5-40.3-11.1-56.8-28.9-1.6-1.8-3.3-3.7-4.9-5.7.3 7.1-1.3 16.9-5.7 24.9l-9.1-8c1.4-3.3 2.5-7.2 2.9-11.7 1-11.4-2.3-24.3-9.9-38.4-.3-.6-6.1-11.1-9.3-17.5l-10.9 15.7 1.8 6.1-4.4 7.5c-6.1-1.5-16.8-1.5-23.1 0l-3.7-7.5H253s1.3-3.1.4-6.8c-3.1-12.9-2.2-26.3 14.5-26.6 1.4 0 3.3.2 5 .1 10-.3 14.6-10.1 14.6-16.7 0-7.2-5.4-14-11-14.8 2.4 4.4 2 11.6.7 14.5-1.3 2.8-4.8 7.1-10.8 7.1-4 0-11-3.2-21-3.2s-17.1 3.2-21 3.2c-5.9 0-9.5-4.3-10.8-7.1-1.4-2.9-1.7-10.1.7-14.5-5.5.7-11.1 7.5-11 14.8.1 8.4 7.4 17.5 16.8 19.2-.9 2.6-1.2 3.3-3.8 11-5.3 15-13.7 41.5-18.1 57.7-4.3 15.9.4 30.1 14 42.1l32.5 29.5c0-7.6 2.5-17.1 9.7-28.3l8.8 7.8c-6.7 11-8.5 20.9-5.3 29 2.6 6.5 8.5 11.3 15.9 12.9 3.6.8 12 .3 18.6-.3l.9-12.7-19.1 1.6c4.2-4.6 9.3-16.4 9.4-27.3h11.7c0 4.7-.7 9.4-1.9 14l28.9-2.3.7 8.3 15.6-1.4c0-.2-.1-.5-.1-.7-8.1-4.1-17.1-16.2-12.9-34.2h12.2c-2.8 6.9-2.4 18.8 5.7 23.6 4.8 2.9 12.2 4.4 19 5.8 11.8 2.5 25.1 5.3 27.8 17.7 1.7 8.1-1.7 19.6-4.6 27.4h12.9c1.4-14.8 8.8-37.8 10-41.4zM257.7 335.2c6.6-.3 9.8-4.6 9.6-10.5-6.6.2-9.9 4.6-9.6 10.5zm-32.4-11.4c-.3 6.8 3.5 11.9 11.1 12.2.2-6.8-3.5-11.9-11.1-12.2z"/></svg>