<?xml version="1.0" encoding="UTF-8"?>
<svg enable-background="new 0 0 720 72.1" version="1.1" viewBox="0 0 720 72.1" xml:space="preserve" xmlns="http://www.w3.org/2000/svg">
<style type="text/css">
	.st0{fill:#E31837;}
	.st1{fill:#012169;}
</style>
<path class="st0" d="m664.6 69.1c0-1.6 1.3-2.9 3-2.9s3 1.3 3 2.9-1.3 3-3 3-3-1.3-3-3m0.6 0c0 1.3 1.1 2.4 2.5 2.4 1.3 0 2.4-1 2.4-2.4 0-1.3-1.1-2.3-2.4-2.3-1.5 0-2.5 1.1-2.5 2.3"/>
<path class="st0" d="m669.1 70.8h-0.6l-1-1.5h-0.6v1.5h-0.4v-3.3h1.5c0.3 0 0.6 0 0.8 0.2 0.3 0.1 0.4 0.4 0.4 0.7 0 0.6-0.5 0.9-1.1 0.9l1 1.5zm-1.6-1.9c0.5 0 1.1 0.1 1.1-0.5 0-0.4-0.4-0.5-0.8-0.5h-0.9v1h0.6z"/>
<path class="st0" d="m653.3 72.1c21-18 50.5-35.5 66.7-41.8-2.5-1.6-6.4-3.9-10.8-6.4-20.9 6.9-45.3 22.2-67.1 39.5 3.7 2.8 7.6 5.7 11.2 8.7z"/>
<path class="st1" d="m643.7 23.2c-3.1-1.5-6.5-2.9-9.1-4.1-7.9 3.9-18.2 9.8-31.2 19.1 2.8 1.5 5.8 3.3 9 5.1 10-7.4 20.1-14.4 31.3-20.1z"/>
<path class="st0" d="m662.4 14.6c-3.8-2.1-17-7-26.1-9.1-2.7 1-6.5 2.5-9.1 3.6 3.3 0.9 15.6 4.2 26.1 9.5 2.7-1.3 6.5-2.9 9.1-4z"/>
<path class="st1" d="m617.7 13.3c-11.7 5.4-24 12.8-30.7 17.1 2.4 1.1 4.8 2 8.1 3.6 14.8-10 26.4-16.1 31-18.1-3.3-1.2-6.4-2-8.4-2.6z"/>
<path class="st0" d="m671.2 11.5c2.7-0.9 5.8-1.7 8.5-2.5-7.8-3.3-17.6-6.8-26.4-9-1.4 0.4-5.6 1.5-8.5 2.4 3 0.9 12.9 3.2 26.4 9.1zm-49.3 37.6c3.2 1.9 6.6 4.5 9.9 6.7 21.9-17 43.5-30.1 67.2-37.5-3.3-1.7-6.2-3.2-9.9-5-14.2 3.6-38.5 13.3-67.2 35.8z"/>
<path class="st1" d="m0 66.9h16c8.1 0 11.9-4.2 11.9-10.1 0-4.8-2.5-8-7.7-9 4.6-1.1 6.7-3.9 6.7-8 0-5.2-3.8-9.4-11.9-9.4h-14.9v36.5h-0.1zm13.9-15.5c3 0 5.1 1.5 5.1 4.5 0 3.2-2 4.5-5.1 4.5h-5.2v-9.1h5.2v0.1zm-1-14.6c3 0 5.1 1.3 5.1 4.3s-2 4.3-5.1 4.3h-4.2v-8.6h4.2zm47.3-6.5h-9l-13.7 36.6h9.1l2.5-7.6h13.2l2.5 7.6h9.2l-13.8-36.6zm-4.5 8.8 4.3 13.5h-8.8l4.5-13.5zm63.9-8.8h-8.3v24.5l-15.6-24.5h-9.3v36.6h8.3v-24.4l15.6 24.4h9.3v-36.6zm38.3 36.6-12-18.6v18.6h-8.9v-36.6h8.9v17.6l11.4-17.6h9.9l-12 17.6 13.1 19h-10.4zm41.9-18.3c0 7.3 4.4 11.8 10.1 11.8s10.1-4.5 10.1-11.8-4.4-11.8-10.1-11.8-10.1 4.5-10.1 11.8zm-9.4 0c0.1-10.7 7.6-19.1 19.5-19.1s19.4 8.4 19.5 19.1c-0.1 10.7-7.6 19.1-19.5 19.1s-19.4-8.4-19.5-19.1zm51.2 18.3h8.9v-14.4h11.6v-7h-11.6v-8.2h14l1.6-7h-24.5v36.6zm66-36.6h-9l-13.7 36.6h9.1l2.5-7.6h13.2l2.5 7.6h9.2l-13.8-36.6zm-4.5 8.8 4.3 13.5h-8.8l4.5-13.5zm71.1-8.8h-10.4l-9.5 19.8-9.5-19.8h-10.4v36.6h8v-24.5l11.8 24.5 11.8-24.5v24.5h8.3l-0.1-36.6zm17.3 36.6h25v-7h-16.1v-8.2h12.7v-6.8h-12.7v-7.6h14.7l1.6-7h-25.2v36.6zm58.9 0h9.7l-9.1-15.5c5-1.4 7.4-4.9 7.4-10 0-6.6-4-11-13-11h-14.1v36.6h8.7v-14.4h2.4l8 14.3zm-6.7-29.8c3.7 0 5.6 1.6 5.6 4.7s-1.9 4.7-5.6 4.7h-3.8v-9.4h3.8zm29.7 29.8h8.9v-36.5h-8.9v36.5zm52.7-9.8c-3.4 2.4-6.4 3.2-9.5 3.2-6.8 0-11.6-4.7-11.6-11.7s4.7-11.7 11.3-11.7c3 0 6 0.8 9.3 3.2v-8.3c-3-1.7-6.5-2.4-10.4-2.4-12.1 0-19.7 8.4-19.8 19.1 0.1 10.8 7.5 19.1 19.8 19.1 4.1 0 7.6-0.7 10.8-2.4v-8.1h0.1zm32.6-26.8h-9l-13.7 36.6h9.1l2.5-7.6h13.2l2.5 7.6h9.2l-13.8-36.6zm-4.5 8.8 4.3 13.5h-8.8l4.5-13.5z"/>
</svg>
