<?xml version="1.0" encoding="UTF-8"?>
<svg enable-background="new 0 0 1224 792" version="1.1" viewBox="409.29998779296875 240.10000610351562 405.3999938964844 219.5" xmlns="http://www.w3.org/2000/svg">
<style type="text/css">.st0{fill-rule:evenodd;clip-rule:evenodd;fill:#E31837;}
	.st1{fill:#E31837;}
	.st2{fill:#012169;}</style>
<path class="st0" d="m631.4 454.5c0-2.8 2.3-5 5.2-5s5.2 2.3 5.2 5c0 2.8-2.3 5.1-5.2 5.1s-5.2-2.2-5.2-5.1m1 0c0 2.3 1.9 4.1 4.2 4.1s4.2-1.8 4.2-4.1c0-2.2-1.9-4-4.2-4-2.4 0-4.2 1.8-4.2 4"/>
<path class="st0" d="m639.2 457.4h-1l-1.7-2.6h-1v2.6h-0.8v-5.7h2.5c0.5 0 1 0 1.4 0.3 0.4 0.2 0.6 0.7 0.6 1.2 0 1.1-0.8 1.5-1.8 1.6l1.8 2.6zm-2.7-3.3c0.8 0 2 0.1 2-0.9 0-0.7-0.7-0.8-1.4-0.8h-1.5v1.7h0.9z"/>
<path class="st1" d="m611.4 459.6c64-54.8 154-108.2 203.3-127.3-7.7-4.9-19.6-11.9-32.9-19.5-63.6 21-138 67.8-204.5 120.6 11.3 8.1 23 17.2 34.1 26.2z"/>
<path class="st2" d="m582.1 310.6c-9.5-4.4-19.7-8.8-27.9-12.5-24.1 11.9-55.4 30-95.1 58.2 8.7 4.6 17.8 10 27.6 15.5 30.5-22.5 61.3-44 95.4-61.2z"/>
<path class="st1" d="m639.1 284.2c-11.5-6.6-51.9-21.2-79.7-27.6-8.2 3.1-19.8 7.6-27.7 10.9 9.9 2.8 47.5 12.7 79.5 28.9 8.5-3.8 19.8-8.8 27.9-12.2z"/>
<path class="st2" d="m502.8 280.2c-35.8 16.5-73.1 39.1-93.5 52 7.2 3.3 14.6 6.1 24.7 11.1 45-30.5 80.4-49 94.5-55.2-10-3.3-19.7-6-25.7-7.9z"/>
<path class="st1" d="m665.8 275c8.1-2.6 17.8-5.3 26-7.6-23.9-10.1-53.8-20.6-80.4-27.3-4.2 1.1-16.9 4.7-26 7.4 9.2 2.3 39.5 9.3 80.4 27.5z"/>
<path class="st1" d="m515.5 389.4c9.7 5.9 20.2 13.8 30.2 20.5 66.7-51.7 132.6-91.9 205-114.5-10.1-5.1-18.9-9.6-30.1-15.1-43.4 11.1-117.3 40.7-205.1 109.1z"/>
</svg>
